<?xml version="1.0" encoding="UTF-8" standalone="no"?>
<svg
   xmlns:dc="http://purl.org/dc/elements/1.1/"
   xmlns:cc="http://creativecommons.org/ns#"
   xmlns:rdf="http://www.w3.org/1999/02/22-rdf-syntax-ns#"
   xmlns:svg="http://www.w3.org/2000/svg"
   xmlns="http://www.w3.org/2000/svg"
   xmlns:sodipodi="http://sodipodi.sourceforge.net/DTD/sodipodi-0.dtd"
   xmlns:inkscape="http://www.inkscape.org/namespaces/inkscape"
   version="1.1"
   id="svg847"
   width="395.43396"
   height="181.39848"
   viewBox="0 0 395.43396 181.39848"
   sodipodi:docname="logo.svg"
   inkscape:version="1.0.2-2 (e86c870879, 2021-01-15)">
  <metadata
     id="metadata853">
    <rdf:RDF>
      <cc:Work
         rdf:about="">
        <dc:format>image/svg+xml</dc:format>
        <dc:type
           rdf:resource="http://purl.org/dc/dcmitype/StillImage" />
        <dc:title></dc:title>
      </cc:Work>
    </rdf:RDF>
  </metadata>
  <defs
     id="defs851" />
  <sodipodi:namedview
     pagecolor="#ffffff"
     bordercolor="#666666"
     borderopacity="1"
     objecttolerance="10"
     gridtolerance="10"
     guidetolerance="10"
     inkscape:pageopacity="0"
     inkscape:pageshadow="2"
     inkscape:window-width="1920"
     inkscape:window-height="1017"
     id="namedview849"
     showgrid="false"
     inkscape:zoom="0.87556068"
     inkscape:cx="199.49797"
     inkscape:cy="-191.45644"
     inkscape:window-x="1912"
     inkscape:window-y="-8"
     inkscape:window-maximized="1"
     inkscape:current-layer="g855"
     fit-margin-bottom="20"
     fit-margin-top="0"
     fit-margin-left="0"
     fit-margin-right="0" />
  <g
     inkscape:groupmode="layer"
     inkscape:label="Image"
     id="g855"
     transform="translate(-15.766018,-9.7650392)">
    <g
       id="g1432">
      <path
         style="fill:#eea351;stroke-width:0.8"
         d="m 63.897954,165 c -0.995096,-1.26885 -0.9668,-1.29714 0.302044,-0.30205 0.77,0.60388 1.4,1.23388 1.4,1.4 0,0.65843 -0.656948,0.23465 -1.702044,-1.09795 z M 336.37814,91.6 c 8e-5,-29.92 0.0998,-42.043709 0.22157,-26.941574 0.12179,15.102133 0.12171,39.582134 -1.5e-4,54.399994 C 336.4777,133.87629 336.37805,121.52 336.37814,91.6 Z m -178.99117,51.80218 10.58698,-0.24844 0.22665,-21.37687 0.22666,-21.37687 0.18637,21.8 0.18637,21.8 -11,-0.1747 -11,-0.17469 z m 72.00732,-6e-5 10.5943,-0.24848 0.21151,-52.976824 0.21151,-52.976816 0.19419,53.4 0.19419,53.4 -11,-0.1747 -11,-0.17469 z m 31.99599,3e-5 10.59029,-0.24845 0.21974,-29.77685 0.21976,-29.77685 0.18996,30.2 0.18996,30.2 -11,-0.1747 -11,-0.17469 z m 101.60971,-8e-4 c 8.91,-0.12874 23.49,-0.12874 32.4,0 8.91,0.12875 1.62,0.23409 -16.2,0.23409 -17.82,0 -25.11,-0.10534 -16.2,-0.23409 z M 320.73944,130.6 l -1.93945,-2.2 2.2,1.93945 c 2.05623,1.81271 2.56687,2.46055 1.93945,2.46055 -0.1433,0 -1.1333,-0.99 -2.2,-2.2 z m 47.5762,-19 c 0.002,-6.16 0.12682,-8.57425 0.27906,-5.365 0.15224,3.20925 0.15122,8.24925 -0.002,11.2 -0.15335,2.95075 -0.27791,0.325 -0.27666,-5.835 z m -64.3762,3 -1.93945,-2.2 2.2,1.93945 c 1.21,1.0667 2.2,2.0567 2.2,2.2 0,0.62742 -0.64784,0.11678 -2.46055,-1.93945 z M 200.31337,90.4 c 0,-5.94 0.12594,-8.37 0.27987,-5.4 0.15392,2.97 0.15392,7.83 0,10.8 -0.15393,2.97 -0.27987,0.54 -0.27987,-5.4 z m 200,0 c 0,-5.94 0.12593,-8.37 0.27986,-5.4 0.15393,2.97 0.15393,7.83 0,10.8 -0.15393,2.97 -0.27986,0.54 -0.27986,-5.4 z m -113.97393,7.4 -1.93945,-2.2 2.2,1.939448 c 1.21,1.066704 2.2,2.056704 2.2,2.2 0,0.627422 -0.64784,0.116784 -2.46055,-1.939448 z m 18.78454,-10.8 -1.52399,-1.8 1.8,1.523992 c 1.69155,1.432176 2.16419,2.076008 1.52399,2.076008 -0.1518,0 -0.9618,-0.81 -1.8,-1.8 z M 168.31564,69.2 c 0.002,-6.16 0.12683,-8.57425 0.27907,-5.365 0.15224,3.20925 0.15121,8.24925 -0.002,11.2 -0.15335,2.95075 -0.27791,0.325 -0.27667,-5.835 z m 200,0 c 0.002,-6.16 0.12682,-8.57425 0.27906,-5.365 0.15224,3.20925 0.15122,8.24925 -0.002,11.2 -0.15335,2.95075 -0.27791,0.325 -0.27666,-5.835 z m -79.19165,2.6 -1.524,-1.8 1.8,1.52399 c 1.69156,1.432175 2.1642,2.07601 1.524,2.07601 -0.15181,0 -0.96181,-0.81 -1.8,-1.8 z m -16,-15.2 -1.524,-1.8 1.8,1.52399 c 1.69156,1.432175 2.1642,2.07601 1.524,2.07601 -0.15181,0 -0.96181,-0.81 -1.8,-1.8 z m -16,-15.2 -1.524,-1.8 1.8,1.52399 c 0.99,0.838195 1.8,1.648195 1.8,1.8 0,0.640203 -0.64383,0.167566 -2.076,-1.52399 z"
         id="path1440" />
      <path
         style="fill:#fea725;stroke-width:0.8"
         d="M 61.45128,168.83644 C 40.349001,160.99173 25.325631,149.74777 19.064952,137.11319 16.176029,131.2831 15.764869,129.77669 15.76602,125.02651 15.76922,111.87707 19.675752,105.61518 41.112308,84.398408 65.85872,59.905704 69.399934,53.736041 68.602791,36.503225 68.074258,25.077266 67.152774,22.68145 58.576276,10.434764 56.296631,7.1795782 67.767689,16.478011 74.721409,23.522 81.405102,30.292453 86.474846,37.53233 89.62139,44.8 c 2.707408,6.253388 2.700528,16.177351 -0.01552,22.4 -3.271576,7.495371 -8.119,14.993792 -15.431641,23.871016 -20.691917,25.119074 -24.602311,32.436484 -24.724947,46.267124 -0.05048,5.69309 0.254373,7.1924 2.358621,11.6 2.625621,5.49969 9.543684,14.10864 14.607979,18.17843 3.203926,2.57474 4.036552,4.11659 2.184124,4.04453 -0.55,-0.0214 -3.766923,-1.06749 -7.148718,-2.32466 z m 19.66351,-3.9633 c 0.977408,-7.3681 3.686336,-11.33208 16.370224,-23.95461 C 111.88613,126.58709 114,123.0557 114,113.32902 v -6.271 l 2.58632,5.471 c 2.96005,6.26156 4.3972,12.70003 3.67692,16.4728 -0.6116,3.20351 -3.80546,9.69964 -6.52027,13.26186 -2.55138,3.34778 -9.17536,8.43071 -16.942972,13.00124 -3.3,1.94174 -8.307296,5.86376 -11.12732,8.71558 l -5.127312,5.18514 z m -9.164802,-9.38232 c -4.774735,-5.69456 -6.204494,-13.17652 -4.293494,-22.46792 1.689388,-8.21392 5.423226,-15.11672 13.610656,-25.16224 13.103488,-16.077228 18.12064,-22.704316 20.02232,-26.44722 4.04433,-7.960074 5.35709,-17.884603 3.1745,-23.99941 -1.44844,-4.058056 -0.0847,-2.991174 2.37094,1.854864 3.59843,7.101161 4.61707,12.883733 4.14517,23.531106 -0.70399,15.884048 -4.5248,23.9343 -18.194698,38.33533 -15.194835,16.00752 -18.384715,21.06676 -19.139317,30.35549 -0.41476,5.10545 -0.533796,5.38619 -1.696077,4 z"
         id="path1438" />
      <path
         style="fill:#ea8e2f;stroke-width:0.8"
         d="m 333.92398,143 -1.52399,-1.8 1.8,1.52399 c 0.99,0.83819 1.8,1.64819 1.8,1.8 0,0.6402 -0.64383,0.16756 -2.07601,-1.52399 z m -16.8,-16 -1.52399,-1.8 1.8,1.52399 c 0.99,0.83819 1.8,1.64819 1.8,1.8 0,0.6402 -0.64383,0.16756 -2.07601,-1.52399 z m -16.8,-16 -1.52399,-1.8 1.8,1.52399 c 1.69155,1.43218 2.16419,2.07601 1.52399,2.07601 -0.1518,0 -0.9618,-0.81 -1.8,-1.8 z m -17.59999,-16.8 -1.524,-1.8 1.8,1.523992 c 1.69156,1.432176 2.1642,2.076008 1.524,2.076008 -0.15181,0 -0.96181,-0.81 -1.8,-1.8 z m 25.59999,-4 -1.52399,-1.8 1.8,1.523992 C 310.29154,91.356168 310.76418,92 310.12398,92 c -0.1518,0 -0.9618,-0.81 -1.8,-1.8 z M 292.32399,75 l -1.524,-1.8 1.8,1.52399 c 1.69156,1.432175 2.1642,2.07601 1.524,2.07601 -0.15181,0 -0.96181,-0.81 -1.8,-1.8 z m -16,-15.2 -1.524,-1.8 1.8,1.52399 c 1.69156,1.432175 2.1642,2.07601 1.524,2.07601 -0.15181,0 -0.96181,-0.81 -1.8,-1.8 z m -16,-15.2 -1.524,-1.8 1.8,1.52399 c 0.99,0.838195 1.8,1.648195 1.8,1.8 0,0.640203 -0.64383,0.167566 -2.076,-1.52399 z"
         id="path1436" />
      <path
         style="fill:#e8841c;stroke-width:0.8"
         d="M 303.85191,114.03102 272.39999,84.062032 272.19026,113.63102 271.98052,143.2 H 261.59026 251.19999 V 89.42504 35.650086 l 4.6,4.480736 c 2.53,2.464406 16.84,16.084618 31.8,30.267139 l 27.2,25.786399 0.20986,-29.292179 L 315.2197,37.6 h 10.39015 10.39014 v 53.2 c 0,29.26 -0.15664,53.2 -0.34808,53.2 -0.19145,0 -14.50145,-13.48604 -31.8,-29.96898 z M 147.2,90.4 V 37.6 h 32 32 V 48 58.4 H 189.6 168 V 69.2 80 h 16 16 v 10.4 10.4 h -16 -16 v 21.2 21.2 h -10.4 -10.4 z m 71.99999,0 V 37.6 h 10.4 10.4 v 52.8 52.8 h -10.4 -10.4 z m 128,0 V 37.6 h 32 32 V 48 58.4 h -21.6 -21.6 V 69.2 80 h 16 16 v 10.4 10.4 h -16 -16 v 10.8 10.8 h 21.6 21.6 v 10.4 10.4 h -32 -32 z"
         id="path1434" />
    </g>
  </g>
</svg>
